# Blender v2.76 (sub 0) OBJ File: ''
# www.blender.org
mtllib house.mtl
o Cube
v -53.221073 53.683197 -1.698301
v -53.221073 53.683205 -56.286522
v -53.221073 -0.905013 -56.286530
v -53.221073 -0.905022 -1.698310
v 28.661259 53.683205 -56.286522
v 55.955364 53.683205 -56.286522
v 55.955364 -0.905013 -56.286530
v 28.661259 -0.905013 -56.286530
v 55.955364 53.683193 25.595810
v 55.955364 53.683189 52.889915
v 55.955364 -0.905031 52.889908
v 55.955364 -0.905026 25.595800
v 1.367148 53.683189 52.889915
v -53.221073 53.683189 52.889915
v -53.221073 -0.905031 52.889908
v 1.367148 -0.905031 52.889908
v 28.661259 -0.905022 -1.698310
v 55.955364 -0.905022 -1.698310
v 1.367148 108.271416 -1.698292
v 1.367148 108.271423 -56.286514
v -53.221073 108.271423 -56.286514
v -53.221073 108.271416 -1.698292
v 1.367148 108.271408 52.889923
v -53.221073 108.271408 52.889923
v 55.955364 108.271408 25.595818
v 55.955364 108.271408 52.889923
v 28.661259 108.271423 -56.286514
v 55.955364 108.271423 -56.286514
v 1.367148 53.683205 -56.286522
v 28.661259 108.271408 52.889923
v 28.661259 53.683189 52.889915
v 28.661259 108.271416 -1.698292
v 1.367148 -0.905013 -56.286530
v 1.367148 -0.905022 -1.698310
v 28.661259 -0.905031 52.889908
v -53.221073 -0.905026 25.595800
v 1.367148 -0.905026 25.595800
v 28.661259 108.271408 25.595818
v 1.367148 108.271408 25.595818
v -53.221073 108.271408 25.595818
v -53.221073 53.683193 25.595810
v 55.955364 108.271416 -1.698292
v 55.955364 53.683197 -1.698301
v 28.661259 -0.905026 25.595800
vt 0.500000 0.000000
vt 0.666667 0.000000
vt 0.666667 0.166667
vt 0.166667 0.333333
vt 0.333333 0.333333
vt 0.333333 0.416667
vt 0.166667 0.000000
vt 0.333333 0.000000
vt 0.333333 0.083333
vt 0.666667 0.500000
vt 0.666667 0.666667
vt 0.500000 0.666667
vt 0.666667 0.083333
vt 0.833333 0.000000
vt 0.333333 0.833333
vt 0.333333 1.000000
vt 0.166667 1.000000
vt 0.666667 0.333333
vt 0.500000 0.500000
vt 0.000000 0.000000
vt 0.166667 0.083333
vt 0.000000 0.333333
vt 0.166667 0.416667
vt 0.500000 0.166667
vt 0.000000 0.500000
vt 0.166667 0.500000
vt 0.166667 0.666667
vt 0.500000 0.333333
vt 0.416667 0.500000
vt 0.333333 0.750000
vt 0.166667 0.833333
vt 0.833333 0.166667
vt 0.416667 0.666667
vt 0.333333 0.500000
vt 0.333333 0.666667
vt 0.833333 0.333333
vt 0.916667 0.166667
vt 0.166667 0.750000
vt 0.083333 0.833333
vt 0.333333 0.166667
vt 0.500000 0.250000
vt 0.000000 0.166667
vt 0.166667 0.166667
vt 0.083333 1.000000
vt 0.833333 0.083333
vt 0.916667 0.000000
vt 0.666667 0.250000
vt 0.916667 0.083333
vt 0.083333 0.750000
vt 0.416667 0.333333
vt 0.000000 0.416667
vt 0.083333 0.666667
vt 0.000000 0.750000
vt 1.000000 0.083333
vt 1.000000 0.000000
vt 0.000000 1.000000
vt 0.333333 0.250000
vt 0.000000 0.833333
vt 0.916667 0.333333
vt 1.000000 0.166667
vt 0.000000 0.083333
vt 0.000000 0.666667
vt 1.000000 0.333333
vn -1.000000 -0.000000 0.000000
vn 0.000000 0.000000 -1.000000
vn 1.000000 -0.000000 0.000000
vn 0.000000 -0.000000 1.000000
vn 0.000000 -1.000000 -0.000000
vn 0.000000 1.000000 0.000000
usemtl Material
s 1
f 2/1/1 3/2/1 4/3/1
f 6/4/2 7/5/2 8/6/2
f 10/7/3 11/8/3 12/9/3
f 14/10/4 15/11/4 16/12/4
f 8/13/5 7/2/5 18/14/5
f 20/15/6 21/16/6 22/17/6
f 24/18/4 14/10/4 13/19/4
f 26/20/3 10/7/3 9/21/3
f 28/22/2 6/4/2 5/23/2
f 21/8/1 2/1/1 1/24/1
f 20/25/2 29/26/2 2/27/2
f 23/28/4 13/19/4 31/29/4
f 27/30/6 20/15/6 19/31/6
f 3/18/5 33/3/5 34/32/5
f 13/19/4 16/12/4 35/33/4
f 29/26/2 33/34/2 3/35/2
f 4/36/5 34/32/5 37/37/5
f 32/38/6 19/31/6 39/39/6
f 22/40/1 1/24/1 41/41/1
f 42/42/3 43/43/3 6/4/3
f 19/31/6 22/17/6 40/44/6
f 17/45/5 18/14/5 12/46/5
f 43/43/3 18/40/3 7/5/3
f 1/24/1 4/3/1 36/47/1
f 34/32/5 17/45/5 44/48/5
f 42/27/6 32/38/6 38/49/6
f 31/29/4 35/33/4 11/35/4
f 28/35/6 27/30/6 32/38/6
f 30/50/4 31/29/4 10/34/4
f 27/51/2 5/23/2 29/26/2
f 33/3/5 8/13/5 17/45/5
f 5/23/2 8/6/2 33/34/2
f 25/52/6 38/49/6 30/53/6
f 37/37/5 44/48/5 35/54/5
f 41/41/1 36/47/1 15/18/1
f 44/48/5 12/46/5 11/55/5
f 39/39/6 40/44/6 24/56/6
f 40/57/1 41/41/1 14/28/1
f 38/49/6 39/39/6 23/58/6
f 36/59/5 37/37/5 16/60/5
f 25/61/3 9/21/3 43/43/3
f 9/21/3 12/9/3 18/40/3
f 1/24/1 2/1/1 4/3/1
f 5/23/2 6/4/2 8/6/2
f 9/21/3 10/7/3 12/9/3
f 13/19/4 14/10/4 16/12/4
f 17/45/5 8/13/5 18/14/5
f 19/31/6 20/15/6 22/17/6
f 23/28/4 24/18/4 13/19/4
f 25/61/3 26/20/3 9/21/3
f 27/51/2 28/22/2 5/23/2
f 22/40/1 21/8/1 1/24/1
f 21/62/2 20/25/2 2/27/2
f 30/50/4 23/28/4 31/29/4
f 32/38/6 27/30/6 19/31/6
f 4/36/5 3/18/5 34/32/5
f 31/29/4 13/19/4 35/33/4
f 2/27/2 29/26/2 3/35/2
f 36/59/5 4/36/5 37/37/5
f 38/49/6 32/38/6 39/39/6
f 40/57/1 22/40/1 41/41/1
f 28/22/3 42/42/3 6/4/3
f 39/39/6 19/31/6 40/44/6
f 44/48/5 17/45/5 12/46/5
f 6/4/3 43/43/3 7/5/3
f 41/41/1 1/24/1 36/47/1
f 37/37/5 34/32/5 44/48/5
f 25/52/6 42/27/6 38/49/6
f 10/34/4 31/29/4 11/35/4
f 42/27/6 28/35/6 32/38/6
f 26/5/4 30/50/4 10/34/4
f 20/25/2 27/51/2 29/26/2
f 34/32/5 33/3/5 17/45/5
f 29/26/2 5/23/2 33/34/2
f 26/62/6 25/52/6 30/53/6
f 16/60/5 37/37/5 35/54/5
f 14/28/1 41/41/1 15/18/1
f 35/54/5 44/48/5 11/55/5
f 23/58/6 39/39/6 24/56/6
f 24/5/1 40/57/1 14/28/1
f 30/53/6 38/49/6 23/58/6
f 15/63/5 36/59/5 16/60/5
f 42/42/3 25/61/3 43/43/3
f 43/43/3 9/21/3 18/40/3
