# Blender v2.76 (sub 0) OBJ File: ''
# www.blender.org
mtllib skybox.mtl
o Cube.001
v -1400.310303 1312.968262 -1480.965698
v -1400.310303 -123.313339 -1480.966187
v -1400.310303 -123.313812 -44.684582
v 1472.252808 1312.968262 -1480.965698
v 1472.252808 -123.313339 -1480.966187
v 754.112122 -123.313339 -1480.966187
v 1472.252808 1312.967407 1391.597412
v 1472.252808 -123.314285 1391.597046
v 1472.252808 -123.314034 673.456238
v -1400.310303 1312.967407 1391.597412
v -1400.310303 -123.314285 1391.597046
v 35.971306 -123.314285 1391.597046
v 1472.252808 -123.313812 -44.684582
v 35.971306 2749.249756 -1480.965332
v -1400.310303 2749.249756 -1480.965332
v -1400.310303 2749.249268 -44.683636
v -1400.310303 2749.248779 1391.597900
v 35.971306 1312.967407 1391.597412
v 1472.252808 2749.248779 1391.597900
v 1472.252808 1312.967529 673.456726
v 1472.252808 2749.249756 -1480.965332
v 754.112122 1312.968262 -1480.965698
v -1400.310303 1312.967773 -44.684109
v 35.971306 1312.968262 -1480.965698
v 35.971306 2749.248779 1391.597900
v 754.112122 1312.967407 1391.597412
v 754.112122 2749.249756 -1480.965332
v 35.971306 2749.249268 -44.683636
v 35.971306 -123.313339 -1480.966187
v 35.971306 -123.313812 -44.684582
v 754.112122 -123.314285 1391.597046
v 35.971306 -123.314034 673.456238
v 754.112122 2749.249268 -44.683636
v 35.971306 2749.249023 673.457214
v -1400.310303 1312.967529 673.456726
v 1472.252808 2749.249268 -44.683636
v 1472.252808 1312.967773 -44.684109
v -1400.310303 2749.249023 673.457214
v 754.112122 -123.313812 -44.684582
v -1400.310303 -123.314034 673.456238
v 754.112122 -123.314034 673.456238
v 754.112122 2749.249023 673.457214
v 754.112122 2749.248779 1391.597900
v 1472.252808 2749.249023 673.457214
vt 0.500000 0.000000
vt 0.666667 0.000000
vt 0.666667 0.166667
vt 0.166667 0.333333
vt 0.333333 0.333333
vt 0.333333 0.416667
vt 0.166667 0.000000
vt 0.333333 0.000000
vt 0.333333 0.083333
vt 0.666667 0.500000
vt 0.666667 0.666667
vt 0.500000 0.666667
vt 0.666667 0.083333
vt 0.833333 0.000000
vt 0.333333 0.833333
vt 0.333333 1.000000
vt 0.166667 1.000000
vt 0.666667 0.333333
vt 0.500000 0.500000
vt 0.000000 0.000000
vt 0.166667 0.083333
vt 0.000000 0.333333
vt 0.166667 0.416667
vt 0.500000 0.166667
vt 0.000000 0.500000
vt 0.166667 0.500000
vt 0.166667 0.666667
vt 0.500000 0.333333
vt 0.416667 0.500000
vt 0.333333 0.750000
vt 0.166667 0.833333
vt 0.833333 0.166667
vt 0.416667 0.666667
vt 0.333333 0.500000
vt 0.333333 0.666667
vt 0.833333 0.333333
vt 0.916667 0.166667
vt 0.166667 0.750000
vt 0.083333 0.833333
vt 0.333333 0.166667
vt 0.500000 0.250000
vt 0.000000 0.166667
vt 0.166667 0.166667
vt 0.083333 1.000000
vt 0.833333 0.083333
vt 0.916667 0.000000
vt 0.666667 0.250000
vt 0.916667 0.083333
vt 0.083333 0.750000
vt 0.416667 0.333333
vt 0.000000 0.416667
vt 0.083333 0.666667
vt 0.000000 0.750000
vt 1.000000 0.083333
vt 1.000000 0.000000
vt 0.000000 1.000000
vt 0.333333 0.250000
vt 0.000000 0.833333
vt 0.916667 0.333333
vt 1.000000 0.166667
vt 0.000000 0.083333
vt 0.000000 0.666667
vt 1.000000 0.333333
vn -1.000000 0.000000 0.000000
vn 0.000000 0.000000 -1.000000
vn 1.000000 0.000000 0.000000
vn 0.000000 -0.000000 1.000000
vn 0.000000 -1.000000 -0.000000
vn 0.000000 1.000000 0.000000
usemtl Material.002
s 1
f 1/1/1 2/2/1 3/3/1
f 4/4/2 5/5/2 6/6/2
f 7/7/3 8/8/3 9/9/3
f 10/10/4 11/11/4 12/12/4
f 6/13/5 5/2/5 13/14/5
f 14/15/6 15/16/6 16/17/6
f 17/18/4 10/10/4 18/19/4
f 19/20/3 7/7/3 20/21/3
f 21/22/2 4/4/2 22/23/2
f 15/8/1 1/1/1 23/24/1
f 14/25/2 24/26/2 1/27/2
f 25/28/4 18/19/4 26/29/4
f 27/30/6 14/15/6 28/31/6
f 2/18/5 29/3/5 30/32/5
f 18/19/4 12/12/4 31/33/4
f 24/26/2 29/34/2 2/35/2
f 3/36/5 30/32/5 32/37/5
f 33/38/6 28/31/6 34/39/6
f 16/40/1 23/24/1 35/41/1
f 36/42/3 37/43/3 4/4/3
f 28/31/6 16/17/6 38/44/6
f 39/45/5 13/14/5 9/46/5
f 37/43/3 13/40/3 5/5/3
f 23/24/1 3/3/1 40/47/1
f 30/32/5 39/45/5 41/48/5
f 36/27/6 33/38/6 42/49/6
f 26/29/4 31/33/4 8/35/4
f 21/35/6 27/30/6 33/38/6
f 43/50/4 26/29/4 7/34/4
f 27/51/2 22/23/2 24/26/2
f 29/3/5 6/13/5 39/45/5
f 22/23/2 6/6/2 29/34/2
f 44/52/6 42/49/6 43/53/6
f 32/37/5 41/48/5 31/54/5
f 35/41/1 40/47/1 11/18/1
f 41/48/5 9/46/5 8/55/5
f 34/39/6 38/44/6 17/56/6
f 38/57/1 35/41/1 10/28/1
f 42/49/6 34/39/6 25/58/6
f 40/59/5 32/37/5 12/60/5
f 44/61/3 20/21/3 37/43/3
f 20/21/3 9/9/3 13/40/3
f 23/24/1 1/1/1 3/3/1
f 22/23/2 4/4/2 6/6/2
f 20/21/3 7/7/3 9/9/3
f 18/19/4 10/10/4 12/12/4
f 39/45/5 6/13/5 13/14/5
f 28/31/6 14/15/6 16/17/6
f 25/28/4 17/18/4 18/19/4
f 44/61/3 19/20/3 20/21/3
f 27/51/2 21/22/2 22/23/2
f 16/40/1 15/8/1 23/24/1
f 15/62/2 14/25/2 1/27/2
f 43/50/4 25/28/4 26/29/4
f 33/38/6 27/30/6 28/31/6
f 3/36/5 2/18/5 30/32/5
f 26/29/4 18/19/4 31/33/4
f 1/27/2 24/26/2 2/35/2
f 40/59/5 3/36/5 32/37/5
f 42/49/6 33/38/6 34/39/6
f 38/57/1 16/40/1 35/41/1
f 21/22/3 36/42/3 4/4/3
f 34/39/6 28/31/6 38/44/6
f 41/48/5 39/45/5 9/46/5
f 4/4/3 37/43/3 5/5/3
f 35/41/1 23/24/1 40/47/1
f 32/37/5 30/32/5 41/48/5
f 44/52/6 36/27/6 42/49/6
f 7/34/4 26/29/4 8/35/4
f 36/27/6 21/35/6 33/38/6
f 19/5/4 43/50/4 7/34/4
f 14/25/2 27/51/2 24/26/2
f 30/32/5 29/3/5 39/45/5
f 24/26/2 22/23/2 29/34/2
f 19/62/6 44/52/6 43/53/6
f 12/60/5 32/37/5 31/54/5
f 10/28/1 35/41/1 11/18/1
f 31/54/5 41/48/5 8/55/5
f 25/58/6 34/39/6 17/56/6
f 17/5/1 38/57/1 10/28/1
f 43/53/6 42/49/6 25/58/6
f 11/63/5 40/59/5 12/60/5
f 36/42/3 44/61/3 37/43/3
f 37/43/3 20/21/3 13/40/3
