# Blender v2.76 (sub 0) OBJ File: ''
# www.blender.org
mtllib wall1.mtl
o Cube.001
v 28.348360 -0.476057 -27.276485
v 28.348360 40.061146 -27.276472
v 28.348360 40.061134 -3.016000
v 30.587950 -0.476067 -3.016014
v 30.587950 40.061134 -3.016000
v 30.587950 40.061146 -27.276472
v 28.348360 -0.476067 -3.016014
v 28.348360 40.061134 0.292247
v 28.348360 40.061150 -54.845184
v 30.587950 40.061150 -54.845184
v 30.587950 40.061134 0.292247
v 30.587950 -0.476067 0.292233
v 28.348360 -0.476067 0.292233
v 30.587950 -0.476048 -54.845200
v 30.587950 -0.476057 -27.276485
v 28.348360 -0.476048 -54.845200
vt 0.731835 0.500000
vt 0.731835 0.000000
vt 0.946506 0.000000
vt 0.029273 0.500000
vt 0.029273 0.000000
vt 0.243945 0.000000
vt 0.946506 0.500000
vt 0.975780 0.000000
vt 0.048441 0.976706
vt 0.024220 0.976706
vt 0.024220 0.738353
vt 0.048441 0.738353
vt 0.024220 0.528602
vt 0.048441 0.528602
vt 0.024220 0.500000
vt 0.000000 0.500000
vt 0.000000 0.000000
vt 0.000000 1.000000
vt 0.975780 0.500000
vt 1.000000 0.000000
vt 0.243945 0.500000
vt 0.487890 0.000000
vt 0.487890 0.500000
vt 0.048441 0.500000
vt 0.024220 1.000000
vt 1.000000 0.500000
vn 1.000000 0.000000 0.000000
vn -1.000000 -0.000000 0.000000
vn 0.000000 -1.000000 -0.000000
vn 0.000000 0.000000 -1.000000
vn 0.000000 -0.000000 1.000000
usemtl Material
s 1
f 1/1/1 2/2/1 3/3/1
f 4/4/2 5/5/2 6/6/2
f 7/7/1 3/3/1 8/8/1
f 9/9/3 10/10/3 6/11/3
f 2/12/3 6/11/3 5/13/3
f 3/14/3 5/13/3 11/15/3
f 12/16/2 11/17/2 5/5/2
f 13/18/4 8/16/4 11/15/4
f 14/19/5 10/8/5 9/20/5
f 15/21/2 6/6/2 10/22/2
f 16/23/1 9/22/1 2/2/1
f 7/7/1 1/1/1 3/3/1
f 15/21/2 4/4/2 6/6/2
f 13/19/1 7/7/1 8/8/1
f 2/12/3 9/9/3 6/11/3
f 3/14/3 2/12/3 5/13/3
f 8/24/3 3/14/3 11/15/3
f 4/4/2 12/16/2 5/5/2
f 12/25/4 13/18/4 11/15/4
f 16/26/5 14/19/5 9/20/5
f 14/23/2 15/21/2 10/22/2
f 1/1/1 16/23/1 2/2/1
