# Blender v2.76 (sub 0) OBJ File: ''
# www.blender.org
mtllib skybox.mtl
o Cube_Cube.001
v -195.525284 270.996582 -195.525253
v -195.525284 -120.053986 -195.525314
v -195.525284 -120.054047 195.525253
v 195.525284 270.996582 -195.525253
v 195.525284 -120.053986 -195.525314
v 195.525284 270.996521 195.525314
v 195.525284 -120.054047 195.525253
v -195.525284 270.996521 195.525314
v -195.525284 270.996582 -195.525253
v -195.525284 -120.053986 -195.525314
v -195.525284 -120.054047 195.525253
v -195.525284 270.996521 195.525314
vt 0.000000 0.666667
vt 0.333333 0.666667
vt 0.333333 1.000000
vt 0.666667 0.333333
vt 0.666667 0.000000
vt 1.000000 0.000000
vt 0.666667 0.666667
vt 0.333333 0.333333
vt 0.000000 0.333333
vt 0.333333 0.000000
vt 0.000000 1.000000
vt 1.000000 0.333333
vt 0.000000 0.000000
vn 0.000000 0.000000 -1.000000
vn 1.000000 -0.000000 0.000000
vn 0.000000 -0.000000 1.000000
vn 0.000000 -1.000000 -0.000000
vn 0.000000 1.000000 0.000000
vn -1.000000 0.000000 0.000000
usemtl Material
s 1
f 4/1/1 5/2/1 2/3/1
f 6/4/2 7/5/2 5/6/2
f 8/7/3 3/2/3 7/8/3
f 2/2/4 5/1/4 7/9/4
f 4/10/5 1/8/5 8/9/5
f 1/11/1 4/1/1 2/3/1
f 4/12/2 6/4/2 5/6/2
f 6/4/3 8/7/3 7/8/3
f 3/8/4 2/2/4 7/9/4
f 6/13/5 4/10/5 8/9/5
f 9/5/6 10/4/6 11/8/6
f 12/10/6 9/5/6 11/8/6
